# xmcd
#
# Track frame offsets: 
#        150
#        16460
#        29316
#        48927
#        67304
#        82860
#        96887
#        112090
#        128502
#        145633
#
# Disc length: 2195 seconds
#
# Revision: 0
# Processed by: cddbd v1.5.2PL0 Copyright (c) Steve Scherf et al.
# Submitted via: ExactAudioCopy v1.0b1
#
DISCID=7f08910a
DTITLE=Travis Tritt - Super Hits
DYEAR=2007
DGENRE=Country
TTITLE0=Honky-Tonk History
TTITLE1=Girl's Gone Wild
TTITLE2=Best Of Intentions
TTITLE3=It's A Great Day To Be Alive
TTITLE4=Too Far To Turn Around
TTITLE5=Can't Seem To Get Over You
TTITLE6=What Say You
TTITLE7=Love Of A Woman
TTITLE8=Strong Enough To Be Your Man
TTITLE9=Country Ain't Country
EXTD=
EXTT0=
EXTT1=
EXTT2=
EXTT3=
EXTT4=
EXTT5=
EXTT6=
EXTT7=
EXTT8=
EXTT9=
PLAYORDER=
